HIERARCHY
ROOT Hips
{
  OFFSET 11.9452 101.033 232.571
  CHANNELS 6 Xposition Yposition Zposition Zrotation Xrotation Yrotation
  JOINT RightUpLeg
  {
    OFFSET -8.9458 -8.66707 0.101652
    CHANNELS 3 Zrotation Xrotation Yrotation
    JOINT RightLeg
    {
      OFFSET 0 -44.4227 1.3727
      CHANNELS 3 Zrotation Xrotation Yrotation
      JOINT RightFoot
      {
        OFFSET 0.253549 -42.0924 -1.46059
        CHANNELS 3 Zrotation Xrotation Yrotation
        JOINT RightToes
        {
          OFFSET 0.04 -4.41509 8.4991
          CHANNELS 3 Zrotation Xrotation Yrotation
          End Site
          {
            OFFSET -0.08 -0.137448 9.77979
          }
        }
      }
    }
  }
  JOINT Spine
  {
    OFFSET 0 11.8905 0
    CHANNELS 3 Zrotation Xrotation Yrotation
    JOINT Spine1
    {
      OFFSET 0 25.6574 0.127663
      CHANNELS 3 Zrotation Xrotation Yrotation
      JOINT HEad
      {
        OFFSET 0 8.73416 0.011341
        CHANNELS 3 Zrotation Xrotation Yrotation
        End Site
        {
          OFFSET -0.29 12.7742 2.51395
        }
      }
      JOINT LeftShoulder1
      {
        OFFSET 8.99 -0.362252 -0.22
        CHANNELS 3 Zrotation Xrotation Yrotation
        JOINT LeftArm
        {
          OFFSET 10.2827 -0.00338 0.322123
          CHANNELS 3 Zrotation Xrotation Yrotation
          JOINT LeftForeArm
          {
            OFFSET 32.7669 0.099144 -1.42434
            CHANNELS 3 Zrotation Xrotation Yrotation
            JOINT LeftHand
            {
              OFFSET 27.5643 0.085362 1.02216
              CHANNELS 3 Zrotation Xrotation Yrotation
              End Site
              {
                OFFSET 16.7443 -0.6 1.50291
              }
            }
          }
        }
      }
      JOINT RightShoulder
      {
        OFFSET -8.99 -0.362252 -0.22
        CHANNELS 3 Zrotation Xrotation Yrotation
        JOINT RightArm
        {
          OFFSET -10.2827 -0.00338 0.322123
          CHANNELS 3 Zrotation Xrotation Yrotation
          JOINT RightForeArm
          {
            OFFSET -32.8971 0.099144 -1.42434
            CHANNELS 3 Zrotation Xrotation Yrotation
            JOINT RightHand
            {
              OFFSET -27.4921 0.085362 1.02216
              CHANNELS 3 Zrotation Xrotation Yrotation
              End Site
              {
                OFFSET -16.6312 -0.6 1.50291
              }
            }
          }
        }
      }
    }
  }
  JOINT LeftUpLeg
  {
    OFFSET 8.9458 -8.66707 0.101652
    CHANNELS 3 Zrotation Xrotation Yrotation
    JOINT LeftLeg
    {
      OFFSET 0 -44.4227 1.3727
      CHANNELS 3 Zrotation Xrotation Yrotation
      JOINT LeftFoot
      {
        OFFSET -0.253549 -42.0924 -1.46059
        CHANNELS 3 Zrotation Xrotation Yrotation
        JOINT LeftToes
        {
          OFFSET -0.04 -4.41509 8.4991
          CHANNELS 3 Zrotation Xrotation Yrotation
          End Site
          {
            OFFSET 0.08 -0.047448 9.77979
          }
        }
      }
    }
  }
}
MOTION
Frames:	7
Frame Time:	0.0166667
11.9452 101.033 232.571 0.258916 -0.0548714 175.743 12.3931 -21.3321 0.624983 -8.17067 22.0938 -4.88161 -1.14915 5.72505 -0.101799 0.0462048 0.000533964 0.662642 0.387671 3.92321 0.196753 0.0160253 -5.92001 0.278508 -0.831687 2.06485 1.44418 -7.45443e-017 7.95139e-016 -2.38542e-015 -98.602 -36.8245 -11.8019 -11.7336 14.3671 -21.4522 0.368473 9.90896 -0.00117926 1.36979 0.11019 -2.36215 91.8184 -41.1159 2.55964 12.7544 13.3366 7.72544 -0.369625 9.91382 0.00119885 -2.45484 7.90544 -0.0463068 -7.14244 32.5103 12.9672 -11.4073 -5.80704 -0.294871 1.06771e-011 1.99421e-012 3.15098e-011 
12.1481 101.085 230.959 0.550493 -0.0610893 176.294 12.6358 -20.5619 0.384847 -8.18035 22.6616 -5.17709 -1.25475 4.75331 -0.116455 0.224558 -0.760324 0.570549 0.857493 4.03427 0.0575901 -0.215649 -5.75463 0.264131 -0.236177 1.41098 0.9192 1.2424e-017 -1.98785e-016 7.95139e-016 -97.4513 -38.3814 -10.3167 -11.5487 14.2688 -20.8639 0.368473 9.90896 -0.00117926 1.4454 0.123928 -2.23504 92.5358 -40.6298 3.37033 12.7556 13.3711 8.05619 -0.369625 9.91382 0.00119885 -1.03151 5.62064 1.12093 -7.4422 37.067 10.7128 -11.4677 -1.76408 0.107215 0.760827 3.48725 -1.86822 
12.3307 101.124 229.381 0.811491 -0.0978598 176.858 12.8466 -19.8615 0.197273 -8.17532 23.2544 -5.50908 -1.27013 3.79235 -0.134739 0.434289 -1.55183 0.420284 1.31259 4.13385 -0.0726164 -0.413899 -5.58258 0.251111 0.279631 0.801147 0.403868 -2.48481e-017 5.96354e-016 7.95139e-016 -96.2247 -39.8023 -8.87869 -11.4715 14.1884 -20.2095 0.368473 9.90896 -0.00117926 1.39244 0.14201 -2.0356 93.366 -40.1066 4.25115 12.7369 13.4073 8.40159 -0.369625 9.91382 0.00119885 0.335239 3.14861 1.68955 -7.72739 41.7278 8.94449 -11.561 1.41184 0.42254 1.34071 6.18381 -2.02186 
12.4611 101.126 227.9 0.992139 -0.262076 177.485 12.9602 -19.4086 0.222483 -8.12154 23.9336 -6.04098 -1.00403 2.88007 -0.165829 0.736901 -2.48139 0.113895 1.73526 4.19964 -0.182495 -0.537809 -5.43839 0.241951 0.633853 0.331343 -0.118673 -1.2424e-017 0 -0 -94.9651 -40.843 -7.69413 -11.6799 14.1566 -19.3221 0.368473 9.90896 -0.00117926 1.04924 0.175279 -1.64332 94.4279 -39.4991 5.26682 12.7057 13.4539 8.80174 -0.369625 9.91382 0.00119885 1.2224 0.0805426 0.530734 -9.26899 46.8369 8.85508 -11.6946 2.09795 0.495267 0.791536 6.80815 3.26426 
12.5542 101.114 226.464 1.12547 -0.385539 178.073 13.0037 -18.9517 0.17472 -8.07559 24.6161 -6.4226 -0.6684 1.94594 -0.196709 1.0639 -3.3491 -0.288681 2.11684 4.25266 -0.270131 -0.576823 -5.19182 0.23452 0.81089 -0.108328 -0.561756 -9.31803e-018 0 7.95139e-016 -93.7581 -41.7394 -6.6208 -12.0839 14.1596 -18.4348 0.368473 9.90896 -0.00117926 0.385814 0.208575 -1.13035 95.8541 -38.8098 6.52945 12.5619 13.4921 9.19477 -0.369625 9.91382 0.00119885 1.72899 -3.1087 -1.30158 -11.4142 51.7388 10.552 -11.6254 1.6942 0.456178 -0.152951 5.96331 9.78869 
12.6087 101.106 225.05 1.22671 -0.275372 178.521 12.983 -18.2478 -0.274132 -8.1058 25.2494 -6.20371 -0.391761 0.894423 -0.2154 1.38579 -3.90081 -0.818311 2.43145 4.31383 -0.321043 -0.452366 -4.62073 0.227745 0.702299 -0.686256 -0.830506 -4.34841e-017 0 -5.96354e-016 -92.7569 -42.6537 -5.65109 -12.6643 14.1989 -17.718 0.368473 9.90896 -0.00117926 -0.823165 0.228342 -0.516515 97.9876 -38.0092 8.26071 12.1563 13.5064 9.56744 -0.369625 9.91382 0.00119885 2.0707 -6.02308 -3.19988 -14.1393 55.717 15.3112 -11.1077 1.08248 0.381682 -0.820933 3.75837 14.1058 
12.6421 101.092 223.639 1.27437 -0.101573 178.866 12.9468 -17.4461 -0.820256 -8.21777 25.8173 -5.81591 -0.230694 -0.161568 -0.228155 1.67545 -4.40618 -1.29962 2.71356 4.36112 -0.361592 -0.327259 -4.03536 0.221033 0.504972 -1.13134 -0.96604 1.83255e-016 0 1.98785e-016 -91.6822 -43.5559 -4.52086 -13.3896 14.2734 -17.1928 0.368473 9.90896 -0.00117926 -2.15143 0.240528 0.161694 100.263 -37.1173 10.1633 11.6458 13.4975 9.81345 -0.369625 9.91382 0.00119885 2.17029 -8.7966 -5.01903 -17.4875 58.7469 21.4777 -10.263 0.193895 0.279915 -1.20746 0.990722 17.6692 
